# xmcd
#
# Track frame offsets:
#  150
#  15788
#  34000
#  49695
#  67461
#  88444
#  109517
#  131904
#  148629
#  170242
#  188058
#  207418
#  220552
#
# Disc length: 3215 seconds
#
# Revision: 0
# Processed by: cddbd v1.5.1PL2 Copyright (c) Steve Scherf et al.
# Submitted via: Collectorz.com_Music_Collector 6.9
#
DISCID=c20c8d0d
DTITLE=Sara Evans - Real Fine Place
DYEAR=2005
DGENRE=Country
TTITLE0=Coal Mine
TTITLE1=A Real Fine Place To Start
TTITLE2=Cheatin'
TTITLE3=New Home Town
TTITLE4=You'll Always Be My Baby
TTITLE5=Supernatural
TTITLE6=Roll Me Back In Time
TTITLE7=The Secrets That We Keep
TTITLE8=Bible Song
TTITLE9=Tell Me
TTITLE10=Missing Missouri
TTITLE11=Momma's Night Out
TTITLE12=These Four Walls
EXTD=
EXTT0=
EXTT1=
EXTT2=
EXTT3=
EXTT4=
EXTT5=
EXTT6=
EXTT7=
EXTT8=
EXTT9=
EXTT10=
EXTT11=
EXTT12=
PLAYORDER=
